<svg width="256" height="256" viewBox="0 0 256 256" fill="none" xmlns="http://www.w3.org/2000/svg">
<g clip-path="url(#clip0_1_61)">
<rect width="256" height="256" rx="16" fill="#ff7f4e"/>
<g clip-path="url(#clip1_1_61)">
<path d="M158.063 140.394C149.63 136.645 139.25 133.906 127.5 133.906C115.75 133.906 105.37 136.717 96.9367 140.394C89.1517 143.854 84.25 151.639 84.25 160.145V171.75H170.75V160.145C170.75 151.639 165.848 143.854 158.063 140.394Z" fill="white"/>
<path d="M49.7942 147.097C44.46 149.404 41 154.594 41 160.433V171.75H73.4375V160.145C73.4375 154.162 75.0954 148.539 77.9788 143.637C75.3117 143.205 72.6446 142.917 69.8333 142.917C62.6971 142.917 55.9213 144.43 49.7942 147.097Z" fill="white"/>
<path d="M205.206 147.097C199.079 144.43 192.303 142.917 185.167 142.917C182.355 142.917 179.688 143.205 177.021 143.637C179.905 148.539 181.562 154.162 181.562 160.145V171.75H214V160.433C214 154.594 210.54 149.404 205.206 147.097Z" fill="white"/>
<path d="M127.5 128.5C139.466 128.5 149.125 118.841 149.125 106.875C149.125 94.9092 139.466 85.25 127.5 85.25C115.534 85.25 105.875 94.9092 105.875 106.875C105.875 118.841 115.534 128.5 127.5 128.5Z" fill="white"/>
<path d="M69.8326 103.248L51.7892 121.292L69.8326 139.335L87.876 121.292L69.8326 103.248Z" fill="white"/>
<path d="M185.167 106.875L167.146 135.708H203.188L185.167 106.875Z" fill="white"/>
</g>
</g>
<defs>
<clipPath id="clip0_1_61">
<rect width="256" height="256" fill="white"/>
</clipPath>
<clipPath id="clip1_1_61">
<rect width="173" height="173" fill="white" transform="translate(41 42)"/>
</clipPath>
</defs>
</svg>
