<svg width="256" height="256" viewBox="0 0 256 256" fill="none" xmlns="http://www.w3.org/2000/svg">
<g clip-path="url(#clip0_1_70)">
<rect width="256" height="256" rx="16" fill="#ff7f4e"/>
<g class="icon" clip-path="url(#clip1_1_70)">
<path d="M196.556 157.982L188.699 102.766C186.68 88.5658 174.498 78.0417 160.154 78.0417H94.8463C80.5017 78.0417 68.3196 88.5658 66.3013 102.766L58.4442 157.982C56.8584 169.083 65.4363 178.958 76.6092 178.958C81.5109 178.958 86.1242 177.012 89.5842 173.552L105.875 157.333H149.125L165.344 173.552C168.804 177.012 173.489 178.958 178.319 178.958C189.564 178.958 198.142 169.083 196.556 157.982ZM120.292 121.292H105.875V135.708H98.6667V121.292H84.2501V114.083H98.6667V99.6667H105.875V114.083H120.292V121.292ZM149.125 114.083C145.16 114.083 141.917 110.84 141.917 106.875C141.917 102.91 145.16 99.6667 149.125 99.6667C153.09 99.6667 156.333 102.91 156.333 106.875C156.333 110.84 153.09 114.083 149.125 114.083ZM163.542 135.708C159.577 135.708 156.333 132.465 156.333 128.5C156.333 124.535 159.577 121.292 163.542 121.292C167.506 121.292 170.75 124.535 170.75 128.5C170.75 132.465 167.506 135.708 163.542 135.708Z" fill="white"/>
</g>
</g>
<defs>
<clipPath id="clip0_1_70">
<rect width="256" height="256" fill="white"/>
</clipPath>
<clipPath id="clip1_1_70">
<rect width="173" height="173" fill="white" transform="translate(41 42)"/>
</clipPath>
</defs>
</svg>
