<svg width="256" height="256" viewBox="0 0 256 256" fill="none" xmlns="http://www.w3.org/2000/svg">
<g clip-path="url(#clip0_1_55)">
<rect width="256" height="256" rx="16" fill="#ff7f4e"/>
<path class="icon" d="M185.542 135.083H70.2083C66.2437 135.083 63 138.327 63 142.292V185.542C63 189.506 66.2437 192.75 70.2083 192.75H185.542C189.506 192.75 192.75 189.506 192.75 185.542V142.292C192.75 138.327 189.506 135.083 185.542 135.083ZM91.8333 178.333C83.9042 178.333 77.4167 171.846 77.4167 163.917C77.4167 155.988 83.9042 149.5 91.8333 149.5C99.7625 149.5 106.25 155.988 106.25 163.917C106.25 171.846 99.7625 178.333 91.8333 178.333ZM185.542 63H70.2083C66.2437 63 63 66.2437 63 70.2083V113.458C63 117.423 66.2437 120.667 70.2083 120.667H185.542C189.506 120.667 192.75 117.423 192.75 113.458V70.2083C192.75 66.2437 189.506 63 185.542 63ZM91.8333 106.25C83.9042 106.25 77.4167 99.7625 77.4167 91.8333C77.4167 83.9042 83.9042 77.4167 91.8333 77.4167C99.7625 77.4167 106.25 83.9042 106.25 91.8333C106.25 99.7625 99.7625 106.25 91.8333 106.25Z" fill="white"/>
</g>
<defs>
<clipPath id="clip0_1_55">
<rect width="256" height="256" fill="white"/>
</clipPath>
</defs>
</svg>
