<svg width="256" height="256" viewBox="0 0 256 256" fill="none" xmlns="http://www.w3.org/2000/svg">
<g clip-path="url(#clip0_1_64)">
<rect width="256" height="256" rx="16" fill="#ff7f4e"/>
<g clip-path="url(#clip1_1_64)" class="icon">
<path d="M156.333 121.292C168.299 121.292 177.886 111.633 177.886 99.6667C177.886 87.7009 168.299 78.0417 156.333 78.0417C144.368 78.0417 134.708 87.7009 134.708 99.6667C134.708 111.633 144.368 121.292 156.333 121.292ZM98.6667 121.292C110.633 121.292 120.22 111.633 120.22 99.6667C120.22 87.7009 110.633 78.0417 98.6667 78.0417C86.7009 78.0417 77.0417 87.7009 77.0417 99.6667C77.0417 111.633 86.7009 121.292 98.6667 121.292ZM98.6667 135.708C81.8713 135.708 48.2084 144.142 48.2084 160.938V178.958H149.125V160.938C149.125 144.142 115.462 135.708 98.6667 135.708ZM156.333 135.708C154.243 135.708 151.864 135.853 149.341 136.069C157.703 142.124 163.542 150.269 163.542 160.938V178.958H206.792V160.938C206.792 144.142 173.129 135.708 156.333 135.708Z" fill="white"/>
</g>
</g>
<defs>
<clipPath id="clip0_1_64">
<rect width="256" height="256" fill="white"/>
</clipPath>
<clipPath id="clip1_1_64">
<rect width="173" height="173" fill="white" transform="translate(41 42)"/>
</clipPath>
</defs>
</svg>
